<?xml version="1.0" encoding="UTF-8"?>
<svg width="600pt" height="600pt" version="1.1" viewBox="0 0 1000 1000" xmlns="http://www.w3.org/2000/svg">
 <path d="m923.5 557.12-287.48-250.55c-14.137-12.312-35.184-12.289-49.273 0.046875l-286.26 250.56c-26.016 22.777-9.8984 65.629 24.672 65.629 20.676 0 37.441 16.766 37.441 37.453v218.76c0 20.688 16.777 37.441 37.453 37.441h131.22v-191.73c0-11.699 9.4688-21.168 21.156-21.168h119.2c11.688 0 21.168 9.4688 21.168 21.168v191.73h124.62c20.688 0 37.453-16.754 37.453-37.441v-218.76c0-20.688 16.766-37.453 37.441-37.453h6.6016c34.602-0.015625 50.695-42.953 24.594-65.691" fill="#fff"/>
</svg>
